<svg width="54" height="50" viewBox="0 0 54 50" fill="none" xmlns="http://www.w3.org/2000/svg">
<g filter="url(#filter0_d_43_164)">
<path fill-rule="evenodd" clip-rule="evenodd" d="M44.4622 21.0022C44.4622 22.8326 45.9653 24.3219 47.8125 24.3219C48.744 24.3219 49.5 25.071 49.5 25.9939V32.0157C49.5 37.1077 45.3195 41.25 40.1805 41.25H13.8218C8.68275 41.25 4.5 37.1077 4.5 32.0157V25.9939C4.5 25.071 5.256 24.3219 6.1875 24.3219C8.037 24.3219 9.54 22.8326 9.54 21.0022C9.54 19.2187 8.09775 17.8766 6.1875 17.8766C5.73975 17.8766 5.31225 17.7004 4.995 17.3861C4.67775 17.0717 4.5 16.6459 4.5 16.2045L4.5045 9.98657C4.5045 4.89453 8.685 0.75 13.824 0.75H40.176C45.315 0.75 49.4977 4.89453 49.4977 9.98657L49.5 16.0105C49.5 16.4519 49.3223 16.88 49.0073 17.1921C48.69 17.5065 48.2625 17.6826 47.8125 17.6826C45.9653 17.6826 44.4622 19.1719 44.4622 21.0022ZM32.0669 22.4582L34.7197 19.8988C35.1809 19.4573 35.3407 18.8063 35.1404 18.2044C34.9424 17.6024 34.4249 17.1744 33.7994 17.0874L30.1342 16.5568L28.4939 13.2662C28.2127 12.6999 27.6412 12.3477 27.0044 12.3454H26.9999C26.3654 12.3454 25.7939 12.6977 25.5082 13.264L23.8679 16.5568L20.2094 17.0852C19.5772 17.1744 19.0597 17.6024 18.8594 18.2044C18.6614 18.8063 18.8212 19.4573 19.2802 19.8988L21.9329 22.4582L21.3074 26.0765C21.1994 26.7008 21.4537 27.3206 21.9712 27.6929C22.2637 27.9002 22.6034 28.0072 22.9477 28.0072C23.2109 28.0072 23.4764 27.9426 23.7194 27.8155L26.9999 26.1078L30.2737 27.811C30.8407 28.112 31.5134 28.0652 32.0287 27.6907C32.5484 27.3206 32.8027 26.7008 32.6947 26.0765L32.0669 22.4582Z" fill="#69B99D"/>
</g>
<defs>
<filter id="filter0_d_43_164" x="0.5" y="0.75" width="53" height="48.5" filterUnits="userSpaceOnUse" color-interpolation-filters="sRGB">
<feFlood flood-opacity="0" result="BackgroundImageFix"/>
<feColorMatrix in="SourceAlpha" type="matrix" values="0 0 0 0 0 0 0 0 0 0 0 0 0 0 0 0 0 0 127 0" result="hardAlpha"/>
<feOffset dy="4"/>
<feGaussianBlur stdDeviation="2"/>
<feComposite in2="hardAlpha" operator="out"/>
<feColorMatrix type="matrix" values="0 0 0 0 0 0 0 0 0 0 0 0 0 0 0 0 0 0 0.25 0"/>
<feBlend mode="normal" in2="BackgroundImageFix" result="effect1_dropShadow_43_164"/>
<feBlend mode="normal" in="SourceGraphic" in2="effect1_dropShadow_43_164" result="shape"/>
</filter>
</defs>
</svg>
